<svg width="313" height="165" viewBox="0 0 313 165" fill="none" xmlns="http://www.w3.org/2000/svg">
<g clip-path="url(#clip0_206_85)">
<path d="M257.458 164.3H58.0817C54.0649 164.295 50.214 162.698 47.3737 159.858C44.5334 157.019 42.9357 153.169 42.9311 149.153V112.063C42.9357 108.047 44.5334 104.197 47.3737 101.357C50.214 98.5176 54.0649 96.9202 58.0817 96.9157L257.458 60.2295C261.475 60.234 265.326 61.8314 268.166 64.671C271.007 67.5107 272.604 71.3608 272.609 75.3767V149.153C272.604 153.169 271.007 157.019 268.166 159.858C265.326 162.698 261.475 164.295 257.458 164.3Z" fill="#3F3D56"/>
<path d="M61.63 103.812H60.9756V162.611H61.63V103.812Z" fill="#2F2E41"/>
<path d="M46.907 106.019H46.2527V131.208H46.907V106.019Z" fill="#2F2E41"/>
<path d="M55.7333 96.9158H55.079V155.714H55.7333V96.9158Z" fill="#2F2E41"/>
<path d="M229.462 96.425H104.165C103.327 96.424 102.524 96.0908 101.932 95.4985C101.339 94.9062 101.006 94.103 101.005 93.2654V19.6643C101.006 18.8266 101.339 18.0235 101.932 17.4311C102.524 16.8388 103.327 16.5056 104.165 16.5046H229.462C230.3 16.5056 231.103 16.8388 231.696 17.4311C232.288 18.0235 232.622 18.8266 232.623 19.6643V93.2654C232.622 94.103 232.288 94.9062 231.696 95.4985C231.103 96.0908 230.3 96.424 229.462 96.425Z" fill="#E6E7E8"/>
<path d="M214.044 96.425H103.786C103.049 96.4242 102.342 96.131 101.82 95.6097C101.299 95.0885 101.006 94.3818 101.005 93.6446V28.8773C101.006 28.1402 101.299 27.4334 101.82 26.9122C102.342 26.3909 103.049 26.0977 103.786 26.0969H214.044C214.782 26.0977 215.489 26.3909 216.01 26.9122C216.531 27.4334 216.825 28.1402 216.825 28.8773V93.6446C216.825 94.3818 216.531 95.0885 216.01 95.6097C215.489 96.131 214.782 96.4242 214.044 96.425Z" fill="#2F2E41"/>
<path d="M244.963 123.084H71.5591C70.8218 123.083 70.1149 122.79 69.5936 122.269C69.0722 121.748 68.7789 121.041 68.7781 120.304V95.1166C68.7789 94.3794 69.0722 93.6727 69.5936 93.1515C70.1149 92.6302 70.8218 92.337 71.5591 92.3362H244.963C245.7 92.337 246.407 92.6302 246.928 93.1515C247.45 93.6727 247.743 94.3794 247.744 95.1166V120.304C247.743 121.041 247.45 121.748 246.928 122.269C246.407 122.79 245.7 123.083 244.963 123.084Z" fill="#3F3D56"/>
<path d="M162.432 99.369H100.269C98.8232 99.369 97.6514 100.541 97.6514 101.986V114.416C97.6514 115.861 98.8232 117.033 100.269 117.033H162.432C163.878 117.033 165.05 115.861 165.05 114.416V101.986C165.05 100.541 163.878 99.369 162.432 99.369Z" fill="#22D3EE"/>
<path d="M196.949 103.131C198.576 103.131 199.894 101.813 199.894 100.187C199.894 98.5609 198.576 97.2428 196.949 97.2428C195.323 97.2428 194.005 98.5609 194.005 100.187C194.005 101.813 195.323 103.131 196.949 103.131Z" fill="#2F2E41"/>
<path d="M206.438 103.131C208.064 103.131 209.382 101.813 209.382 100.187C209.382 98.5609 208.064 97.2428 206.438 97.2428C204.811 97.2428 203.493 98.5609 203.493 100.187C203.493 101.813 204.811 103.131 206.438 103.131Z" fill="#2F2E41"/>
<path d="M215.926 103.131C217.552 103.131 218.87 101.813 218.87 100.187C218.87 98.5609 217.552 97.2428 215.926 97.2428C214.299 97.2428 212.981 98.5609 212.981 100.187C212.981 101.813 214.299 103.131 215.926 103.131Z" fill="#2F2E41"/>
<path d="M196.949 110.654C198.576 110.654 199.894 109.336 199.894 107.71C199.894 106.084 198.576 104.766 196.949 104.766C195.323 104.766 194.005 106.084 194.005 107.71C194.005 109.336 195.323 110.654 196.949 110.654Z" fill="#2F2E41"/>
<path d="M206.438 110.654C208.064 110.654 209.382 109.336 209.382 107.71C209.382 106.084 208.064 104.766 206.438 104.766C204.811 104.766 203.493 106.084 203.493 107.71C203.493 109.336 204.811 110.654 206.438 110.654Z" fill="#2F2E41"/>
<path d="M215.926 110.654C217.552 110.654 218.87 109.336 218.87 107.71C218.87 106.084 217.552 104.766 215.926 104.766C214.299 104.766 212.981 106.084 212.981 107.71C212.981 109.336 214.299 110.654 215.926 110.654Z" fill="#2F2E41"/>
<path d="M196.949 118.178C198.576 118.178 199.894 116.86 199.894 115.234C199.894 113.608 198.576 112.29 196.949 112.29C195.323 112.29 194.005 113.608 194.005 115.234C194.005 116.86 195.323 118.178 196.949 118.178Z" fill="#2F2E41"/>
<path d="M174.976 106.756C176.603 106.756 177.921 105.438 177.921 103.812C177.921 102.186 176.603 100.868 174.976 100.868C173.35 100.868 172.032 102.186 172.032 103.812C172.032 105.438 173.35 106.756 174.976 106.756Z" fill="#2F2E41"/>
<path d="M174.976 114.28C176.603 114.28 177.921 112.962 177.921 111.336C177.921 109.71 176.603 108.392 174.976 108.392C173.35 108.392 172.032 109.71 172.032 111.336C172.032 112.962 173.35 114.28 174.976 114.28Z" fill="#2F2E41"/>
<path d="M256.735 66.2186C260.21 66.2186 263.028 63.4017 263.028 59.9267C263.028 56.4518 260.21 53.6348 256.735 53.6348C253.259 53.6348 250.442 56.4518 250.442 59.9267C250.442 63.4017 253.259 66.2186 256.735 66.2186Z" fill="#3F3D56"/>
<path d="M89.3525 106.756C90.9787 106.756 92.2971 105.438 92.2971 103.812C92.2971 102.186 90.9787 100.868 89.3525 100.868C87.7262 100.868 86.4079 102.186 86.4079 103.812C86.4079 105.438 87.7262 106.756 89.3525 106.756Z" fill="#2F2E41"/>
<path d="M89.3525 114.28C90.9787 114.28 92.2971 112.962 92.2971 111.336C92.2971 109.71 90.9787 108.392 89.3525 108.392C87.7262 108.392 86.4079 109.71 86.4079 111.336C86.4079 112.962 87.7262 114.28 89.3525 114.28Z" fill="#2F2E41"/>
<path d="M206.438 118.178C208.064 118.178 209.382 116.86 209.382 115.234C209.382 113.608 208.064 112.29 206.438 112.29C204.811 112.29 203.493 113.608 203.493 115.234C203.493 116.86 204.811 118.178 206.438 118.178Z" fill="#2F2E41"/>
<path d="M215.926 118.178C217.552 118.178 218.87 116.86 218.87 115.234C218.87 113.608 217.552 112.29 215.926 112.29C214.299 112.29 212.981 113.608 212.981 115.234C212.981 116.86 214.299 118.178 215.926 118.178Z" fill="#2F2E41"/>
<path d="M244.472 149.416H70.7411C70.0038 149.416 69.2969 149.122 68.7756 148.601C68.2542 148.08 67.9609 147.373 67.9601 146.636V132.898C67.9609 132.16 68.2542 131.454 68.7756 130.932C69.2969 130.411 70.0038 130.118 70.7411 130.117H244.472C245.209 130.118 245.916 130.411 246.437 130.932C246.959 131.454 247.252 132.16 247.253 132.898V146.636C247.252 147.373 246.959 148.08 246.437 148.601C245.916 149.122 245.209 149.416 244.472 149.416Z" fill="#2F2E41"/>
<path d="M113.601 40.3261H206.847C207.541 40.3261 208.206 40.6018 208.697 41.0926C209.188 41.5833 209.464 42.2489 209.464 42.943V88.9076C209.464 89.6016 209.188 90.2672 208.697 90.758C208.206 91.2488 207.541 91.5245 206.847 91.5245H113.601C112.907 91.5245 112.241 91.2488 111.75 90.758C111.26 90.2672 110.984 89.6016 110.984 88.9076V42.943C110.984 42.5993 111.052 42.259 111.183 41.9415C111.315 41.6241 111.507 41.3356 111.75 41.0926C111.993 40.8496 112.282 40.6568 112.6 40.5253C112.917 40.3938 113.258 40.3261 113.601 40.3261Z" fill="white"/>
<path d="M131.071 54.2958C133.838 54.2958 136.081 52.0532 136.081 49.2868C136.081 46.5204 133.838 44.2778 131.071 44.2778C128.304 44.2778 126.06 46.5204 126.06 49.2868C126.06 52.0532 128.304 54.2958 131.071 54.2958Z" fill="#22D3EE"/>
<path d="M151.097 61.9091H127.552C127.157 61.9095 126.778 61.7529 126.498 61.4739C126.218 61.1948 126.06 60.8161 126.059 60.4208C126.058 60.0256 126.214 59.6461 126.493 59.3659C126.772 59.0856 127.151 58.9274 127.546 58.926H151.097C151.293 58.9256 151.488 58.9638 151.669 59.0385C151.85 59.1131 152.015 59.2228 152.154 59.3611C152.292 59.4994 152.403 59.6638 152.478 59.8447C152.553 60.0256 152.592 60.2196 152.592 60.4156C152.593 60.6116 152.554 60.8057 152.479 60.9868C152.405 61.1679 152.295 61.3325 152.156 61.4712C152.018 61.6099 151.854 61.72 151.672 61.7951C151.491 61.8703 151.297 61.909 151.101 61.9091H151.097Z" fill="#CCCCCC"/>
<path d="M138.914 67.8031H127.552C127.157 67.8037 126.777 67.6472 126.497 67.3678C126.217 67.0885 126.059 66.7094 126.058 66.3137C126.058 65.9181 126.214 65.5385 126.494 65.2583C126.773 64.9782 127.152 64.8204 127.548 64.8198H138.914C139.309 64.8204 139.688 64.9778 139.968 65.2575C140.247 65.5372 140.404 65.9162 140.404 66.3115C140.404 66.7067 140.247 67.0858 139.968 67.3655C139.688 67.6451 139.309 67.8025 138.914 67.8031Z" fill="#CCCCCC"/>
<path d="M194.285 79.2459H130.824C130.429 79.2461 130.049 79.0893 129.769 78.81C129.489 78.5307 129.332 78.1516 129.331 77.7562C129.331 77.3608 129.487 76.9814 129.767 76.7013C130.046 76.4213 130.425 76.2635 130.82 76.2627H194.285C194.481 76.2623 194.675 76.3005 194.856 76.3752C195.037 76.4499 195.202 76.5595 195.341 76.6978C195.48 76.8362 195.59 77.0005 195.665 77.1814C195.741 77.3624 195.779 77.5564 195.78 77.7523C195.78 77.9483 195.742 78.1424 195.667 78.3235C195.592 78.5047 195.482 78.6693 195.344 78.808C195.205 78.9467 195.041 79.0567 194.86 79.1319C194.679 79.207 194.485 79.2457 194.289 79.2459H194.285Z" fill="#CCCCCC"/>
<path d="M182.101 85.1398H130.824C130.429 85.1392 130.05 84.9818 129.771 84.7021C129.491 84.4225 129.334 84.0434 129.334 83.6481C129.334 83.2529 129.491 82.8738 129.771 82.5942C130.05 82.3145 130.429 82.1571 130.824 82.1565H182.101C182.497 82.1571 182.876 82.3145 183.155 82.5942C183.434 82.8738 183.591 83.2529 183.591 83.6481C183.591 84.0434 183.434 84.4225 183.155 84.7021C182.876 84.9818 182.497 85.1392 182.101 85.1398Z" fill="#CCCCCC"/>
<path d="M21.3748 147.032L21.0484 139.694C17.6454 137.875 13.8499 136.915 9.99127 136.896C15.3018 141.236 14.6382 149.604 18.2386 155.442C19.3755 157.254 20.9057 158.787 22.7157 159.927C24.5258 161.067 26.5693 161.786 28.6949 162.03L33.139 164.75C33.7488 161.351 33.6143 157.86 32.7449 154.519C31.8755 151.177 30.2917 148.063 28.1028 145.392C26.86 143.906 25.4349 142.582 23.8611 141.452C22.7968 144.258 21.3748 147.032 21.3748 147.032Z" fill="#F2F2F2"/>
<path d="M45.6514 84.7265C46.0463 84.4775 46.3818 84.145 46.6342 83.7524C46.8866 83.3597 47.0499 82.9166 47.1124 82.454C47.175 81.9915 47.1354 81.5209 46.9963 81.0753C46.8573 80.6297 46.6222 80.2201 46.3077 79.8752L56.904 56.4L51.0285 56.903L41.6059 79.7988C41.0614 80.3654 40.7437 81.1121 40.713 81.8973C40.6824 82.6825 40.9408 83.4517 41.4395 84.0591C41.9382 84.6665 42.6423 85.0699 43.4186 85.1929C44.1949 85.3159 44.9894 85.15 45.6514 84.7265Z" fill="#9E616A"/>
<path d="M64.9027 34.3336L62.0944 30.993C62.0944 30.993 60.4936 30.7587 57.3791 35.374C54.3135 39.9168 49.6962 49.5593 52.1091 50.9292L41.3987 73.7997L48.2296 77.0259L59.746 52.3349L64.8519 45.3889L64.9027 34.3336Z" fill="#E6E6E6"/>
<path d="M59.6587 73.6653L79.2893 73.3382L80.9252 59.9268H59.6587V73.6653Z" fill="#9E616A"/>
<path d="M77.8065 155.714L82.3382 155.714L84.4943 138.238L77.8058 138.238L77.8065 155.714Z" fill="#9E616A"/>
<path d="M48.9351 155.653L53.4668 155.621L55.5002 138.13L49.6065 139.482L48.9351 155.653Z" fill="#9E616A"/>
<path d="M63.1091 48.3769L62.0824 51.0461L62.2875 53.7153L82.3844 60.6745L81.3871 48.9929L79.128 46.3237L63.1091 48.3769Z" fill="#FFB6B6"/>
<path d="M71.7307 24.3564C75.6948 24.3564 78.9084 21.1435 78.9084 17.1802C78.9084 13.2169 75.6948 10.004 71.7307 10.004C67.7666 10.004 64.553 13.2169 64.553 17.1802C64.553 21.1435 67.7666 24.3564 71.7307 24.3564Z" fill="#9E616A"/>
<path d="M76.6826 153.479L83.8465 153.052V156.12L90.6574 160.823C90.9938 161.055 91.2472 161.389 91.3805 161.775C91.5138 162.162 91.5201 162.581 91.3984 162.971C91.2768 163.361 91.0335 163.702 90.7042 163.944C90.3749 164.187 89.9768 164.317 89.568 164.317H81.0391L79.569 161.282L78.995 164.317H75.7793L76.6826 153.479Z" fill="#2F2E41"/>
<path d="M47.3849 153.429L54.5456 152.951L54.5671 156.02L61.4108 160.675C61.7488 160.905 62.0045 161.237 62.1405 161.622C62.2765 162.008 62.2857 162.426 62.1668 162.817C62.0478 163.209 61.807 163.551 61.4794 163.796C61.1518 164.04 60.7546 164.174 60.3458 164.177L51.8172 164.236L50.3259 161.211L49.7731 164.251L46.5575 164.273L47.3849 153.429Z" fill="#2F2E41"/>
<path d="M47.525 143.215L50.8249 116.843L52.7464 91.682C51.7648 80.2332 58.35 67.1231 58.35 67.1231L60.9258 55.7001L79.9481 71.0682L79.9436 71.0484C84.1742 82.5848 85.5759 88.2841 85.344 100.569L84.5106 144.732H84.772C85.2059 144.732 85.622 144.904 85.9288 145.211C86.2356 145.518 86.4079 145.934 86.4079 146.368C86.4079 146.801 86.2356 147.217 85.9288 147.524C85.622 147.831 85.2059 148.003 84.772 148.003H76.5926C76.1588 148.003 75.7427 147.831 75.4359 147.524C75.1291 147.217 74.9567 146.801 74.9567 146.368C74.9567 145.934 75.1291 145.518 75.4359 145.211C75.7427 144.904 76.1588 144.732 76.5926 144.732H76.8035L69.2958 92.1474L62.9304 114.227L55.7326 143.012C58.35 142.358 57.9436 143.874 57.9436 144.732C57.9436 145.166 57.7712 145.582 57.4644 145.889C57.1576 146.195 56.7415 146.368 56.3077 146.368H48.1283C47.7478 146.368 47.3792 146.236 47.0859 145.993C46.7926 145.751 46.593 145.414 46.5215 145.041C46.45 144.667 46.5111 144.28 46.6943 143.947C46.8775 143.614 47.1713 143.355 47.525 143.215Z" fill="#2F2E41"/>
<path d="M56.7394 67.9818L57.3938 61.4396C57.4617 61.1727 57.6125 60.9342 57.8243 60.7582C58.0362 60.5823 58.2984 60.4779 58.5733 60.46C58.8459 57.3436 59.993 43.899 60.0616 43.3126L60.0642 43.2878L60.5858 32.1473C60.6048 31.7427 60.7721 31.3592 61.056 31.0702C61.3398 30.7811 61.7201 30.6068 62.1244 30.5803L64.8795 30.4003C64.9173 30.399 64.9531 30.3831 64.9794 30.3559C65.0057 30.3288 65.0204 30.2924 65.0204 30.2546C65.0204 29.6403 65.2645 29.0511 65.6989 28.6167C66.1334 28.1823 66.7227 27.9382 67.3372 27.9382H75.4941C76.0224 27.9384 76.5325 28.1314 76.9287 28.481C77.3248 28.8305 77.5797 29.3126 77.6455 29.8367C77.6491 29.8728 77.6662 29.9062 77.6934 29.9302C77.7206 29.9542 77.7558 29.9671 77.7921 29.9663L77.7931 29.9663C78.7199 29.9472 79.6229 30.2609 80.3382 30.8505C81.0534 31.4401 81.5336 32.2666 81.6915 33.1799C82.8067 39.6667 82.7513 60.2774 81.6463 68.4624C81.2617 71.3117 82.0909 69.055 82.2363 71.439C82.2508 71.6694 82.2196 71.9004 82.1446 72.1187C82.0696 72.337 81.9523 72.5384 81.7993 72.7113C82.4727 72.9069 82.7338 73.6342 82.561 74.3194L82.7044 74.284C82.6196 74.6204 82.4045 74.9094 82.1065 75.0874C81.8085 75.2654 81.4521 75.3177 81.1155 75.2329L56.6725 72.7097C55.9716 72.5331 56.5628 68.6825 56.7394 67.9818Z" fill="#E6E6E6"/>
<path d="M103.898 60.2225C103.537 60.5178 103.115 60.7302 102.662 60.8447C102.21 60.9593 101.738 60.9733 101.279 60.8857C100.821 60.7981 100.387 60.611 100.008 60.3377C99.63 60.0643 99.3161 59.7113 99.0889 59.3036L88.0356 60.9085L90.3791 55.4982L100.51 54.822C101.22 54.4858 102.03 54.4218 102.784 54.6422C103.538 54.8625 104.186 55.3519 104.603 56.0176C105.021 56.6833 105.18 57.479 105.05 58.254C104.92 59.029 104.51 59.7294 103.898 60.2225Z" fill="#9E616A"/>
<path d="M83.3549 39.3551C83.3549 39.3551 84.6201 32.361 80.8873 31.3929C77.1546 30.4248 75.1693 36.6977 75.1693 36.6977C72.162 45.9682 71.8004 52.3543 74.9944 54.8636L74.9316 61.3783C74.9316 61.3783 98.3164 61.9666 96.3844 60.5501C94.4524 59.1335 96.3021 55.1276 96.3021 55.1276L84.7708 53.5952L85.5176 51.8657L84.7338 52.0163L84.1712 50.2509L83.3549 39.3551Z" fill="#E6E6E6"/>
<path d="M38.185 22.1782C36.8609 21.0284 35.5373 19.8776 34.214 18.7259C34.654 18.3852 35.148 18.1206 35.6754 17.9429C37.621 17.2958 39.7296 17.8695 41.7515 18.1879C43.7764 18.5075 46.1307 18.4565 47.5113 16.9444C48.9463 15.3719 48.7062 12.971 48.8524 10.8512C49.053 7.89209 50.2259 4.96131 52.3347 2.87807C54.4435 0.794835 57.5169 -0.358102 60.447 0.0995928C63.376 0.560212 66.0369 2.73216 66.8265 5.58725C68.0195 5.68663 69.1349 6.21928 69.9619 7.08463C70.7889 7.94998 71.2704 9.08813 71.3155 10.2842C71.3215 11.4024 70.8757 12.5709 69.9591 13.2143C69.0426 13.8576 67.6387 13.8195 66.9033 12.9725L67.975 11.822C66.0944 11.7326 63.8362 14.3083 63.3766 16.1348C62.9152 17.9572 63.3312 19.8761 63.8024 21.6977C64.2737 23.5193 64.8069 25.3822 64.5828 27.2503C64.2612 29.9373 62.3532 32.2627 59.9935 33.5908C57.6338 34.9188 54.8696 35.3632 52.1637 35.4257C50.1379 35.4732 48.1124 35.3197 46.1169 34.9677C46.6995 34.4551 47.2793 33.9413 47.8619 33.4287L43.0135 34.2582C42.2271 34.0342 41.4464 33.7783 40.6773 33.493C38.4401 32.6579 36.2653 31.5343 34.5804 29.8481C32.8938 28.1578 31.7386 25.8428 31.8256 23.4582C31.8559 22.6877 32.0251 21.9291 32.3252 21.2187C34.2788 21.5376 36.2321 21.8574 38.185 22.1782Z" fill="#2F2E41"/>
<path d="M79.4169 10.3965C78.3877 9.59406 77.0547 9.28968 75.7546 9.17443C73.4942 7.0187 72.294 6.02827 69.3078 6.94539C66.3216 7.86252 65.2799 10.9803 63.9906 13.8251C60.8997 20.6449 70.0867 26.9146 74.6672 23.6436C73.5892 22.6484 75.5338 19.4709 75.8081 18.0298C76.0398 16.8823 76.7157 15.8728 77.6887 15.2214C78.781 15.8323 80.3303 15.0545 80.7066 13.8425C81.0935 12.5963 80.4461 11.1989 79.4169 10.3965Z" fill="#2F2E41"/>
<path d="M1.71596e-06 164.611C-0.00030418 164.714 0.0402991 164.813 0.112881 164.886C0.185462 164.959 0.284076 165 0.387029 165H312.611C312.714 165 312.813 164.959 312.886 164.886C312.959 164.813 313 164.714 313 164.611C313 164.508 312.959 164.409 312.886 164.336C312.813 164.263 312.714 164.221 312.611 164.221H0.389343C0.286394 164.221 0.187538 164.262 0.114523 164.334C0.0415082 164.407 0.000314496 164.505 1.71596e-06 164.608V164.611Z" fill="#CCCCCC"/>
<path d="M214.044 164.244H103.786C102.251 164.243 101.007 163.484 101.005 162.547V148.17C101.007 147.233 102.251 146.474 103.786 146.472H214.044C215.58 146.474 216.824 147.233 216.825 148.17V162.547C216.824 163.484 215.58 164.243 214.044 164.244Z" fill="#2F2E41"/>
<path d="M205.538 160.973H112.293C110.847 160.973 109.675 160.263 109.675 159.387V139.063C109.675 138.187 110.847 137.477 112.293 137.477H205.538C206.983 137.477 208.155 138.187 208.155 139.063V159.387C208.155 160.263 206.983 160.973 205.538 160.973Z" fill="white"/>
<path d="M125.903 148.736H189.364C189.759 148.736 190.139 148.893 190.419 149.172C190.699 149.451 190.856 149.83 190.857 150.226C190.857 150.621 190.701 151.001 190.421 151.281C190.142 151.561 189.763 151.719 189.368 151.719H125.903C125.508 151.72 125.128 151.564 124.847 151.285C124.567 151.006 124.409 150.627 124.408 150.232C124.407 149.836 124.563 149.456 124.842 149.176C125.121 148.895 125.5 148.737 125.896 148.736H125.903Z" fill="#CCCCCC"/>
<path d="M138.087 142.842H189.364C189.759 142.842 190.139 142.999 190.419 143.279C190.699 143.559 190.856 143.938 190.856 144.334C190.856 144.729 190.699 145.109 190.419 145.388C190.139 145.668 189.76 145.825 189.364 145.825H138.087C137.891 145.826 137.697 145.788 137.515 145.713C137.334 145.639 137.17 145.529 137.031 145.391C136.892 145.253 136.782 145.088 136.706 144.908C136.631 144.727 136.592 144.533 136.591 144.337C136.591 144.141 136.629 143.947 136.704 143.766C136.778 143.585 136.888 143.42 137.026 143.281C137.164 143.142 137.329 143.032 137.51 142.957C137.69 142.882 137.884 142.843 138.08 142.842L138.087 142.842Z" fill="#CCCCCC"/>
<path d="M69.1373 6.63396C67.9872 8.31835 66.7094 10.1872 64.6828 10.8693C64.5589 10.9064 64.4541 10.9899 64.3903 11.1023C64.3264 11.2148 64.3084 11.3475 64.34 11.4729C64.3757 11.5977 64.4589 11.7035 64.5718 11.7676C64.6847 11.8316 64.8182 11.8489 64.9437 11.8156C67.24 11.0427 68.6759 9.04621 69.9848 7.12925C70.0173 7.07362 70.0386 7.01211 70.0473 6.94826C70.0561 6.88442 70.0522 6.81947 70.0358 6.75713C70.0195 6.6948 69.991 6.63629 69.952 6.58496C69.9131 6.53362 69.8644 6.49045 69.8087 6.45793C69.7531 6.42541 69.6916 6.40417 69.6277 6.39542C69.5638 6.38666 69.4989 6.39057 69.4365 6.40692C69.3742 6.42326 69.3157 6.45172 69.2643 6.49068C69.213 6.52964 69.1698 6.57832 69.1373 6.63396Z" fill="#E6E6E6"/>
<path d="M257.785 60.2295H257.131V151.863H257.785V60.2295Z" fill="#2F2E41"/>
<path d="M263.682 70.9771H263.028V162.611H263.682V70.9771Z" fill="#2F2E41"/>
<path d="M269.396 70.3037H268.742V155.739H269.396V70.3037Z" fill="#2F2E41"/>
<path d="M243.353 92.0865H91.5453V92.7408H243.353V92.0865Z" fill="#2F2E41"/>
<path d="M243.353 123.162H91.5453V123.816H243.353V123.162Z" fill="#2F2E41"/>
</g>
<defs>
<clipPath id="clip0_206_85">
<rect width="313" height="165" fill="white"/>
</clipPath>
</defs>
</svg>
