<svg width="359" height="282" viewBox="0 0 359 282" fill="none" xmlns="http://www.w3.org/2000/svg">
<g clip-path="url(#clip0_209_193)">
<path d="M65.455 33.2606C64.7805 33.3347 64.1305 33.5553 63.5508 33.9067C62.9711 34.2582 62.4758 34.732 62.0998 35.2947C61.7238 35.8574 61.4763 36.4955 61.3746 37.1638C61.2729 37.8321 61.3196 38.5146 61.5114 39.163L48.09 48.7163L56.0902 51.783L67.6088 42.2408C68.6811 41.8478 69.5713 41.0766 70.1109 40.0734C70.6504 39.0702 70.8018 37.9047 70.5363 36.7978C70.2708 35.6908 69.6069 34.7194 68.6704 34.0674C67.7339 33.4155 66.5898 33.1284 65.455 33.2606Z" fill="#FFB8B8"/>
<path d="M64.2068 47.6503L47.5589 64.3358C45.2773 66.6078 42.2688 68.0118 39.0561 68.3038L18.4848 70.1735C17.7306 70.2451 16.9697 70.1655 16.2469 69.9393C15.5242 69.713 14.8543 69.3448 14.2769 68.8563C13.478 68.1903 12.884 67.3133 12.563 66.3261C12.242 65.3389 12.2071 64.2815 12.4623 63.2754C12.7175 62.2693 13.2524 61.3554 14.0057 60.6385C14.7589 59.9216 15.6998 59.431 16.7204 59.2228L37.7363 54.7655L56.8697 40.7166C57.1357 40.5675 57.4362 40.4902 57.7414 40.4925C58.0467 40.4947 58.346 40.5765 58.6097 40.7295L63.813 44.9753C64.1261 45.1462 64.3776 45.4105 64.5322 45.731C64.6868 46.0515 64.7368 46.4121 64.6752 46.7624C64.6145 47.0993 64.4509 47.4094 64.2068 47.6503Z" fill="#2F2E41"/>
<path d="M263.805 56.6174C263.929 55.4783 263.697 54.3289 263.143 53.3253C262.588 52.3217 261.736 51.5126 260.704 51.008L157.097 0.567255C156.438 0.246175 155.722 0.0575028 154.99 0.0120146C154.258 -0.0334736 153.524 0.0651097 152.83 0.302138C152.137 0.539166 151.496 0.909998 150.947 1.39346C150.397 1.87692 149.948 2.46353 149.625 3.11982L149.623 3.12369L110.764 82.3199C110.116 83.6465 110.022 85.175 110.503 86.5705C110.984 87.966 112.001 89.1145 113.331 89.7643L216.937 140.205C218.269 140.851 219.804 140.945 221.205 140.466C222.605 139.986 223.759 138.973 224.411 137.649L263.27 58.4524C263.554 57.8763 263.735 57.2553 263.805 56.6174Z" fill="#F2F2F2"/>
<path d="M203.108 232.394H68.6732C66.9807 232.392 65.358 231.721 64.1612 230.529C62.9645 229.337 62.2913 227.721 62.2894 226.035V44.2458C62.2913 42.5599 62.9645 40.9436 64.1612 39.7515C65.358 38.5594 66.9807 37.8889 68.6732 37.887H203.108C204.801 37.8889 206.423 38.5594 207.62 39.7515C208.817 40.9436 209.49 42.5599 209.492 44.2458V226.035C209.49 227.721 208.817 229.337 207.62 230.529C206.423 231.721 204.801 232.392 203.108 232.394Z" fill="white"/>
<path d="M104.33 92.0948C109.174 92.0948 113.101 88.1833 113.101 83.3583C113.101 78.5332 109.174 74.6217 104.33 74.6217C99.4859 74.6217 95.5591 78.5332 95.5591 83.3583C95.5591 88.1833 99.4859 92.0948 104.33 92.0948Z" fill="#E6E6E6"/>
<path d="M90.962 107.236C92.2014 107.938 93.4984 108.533 94.8391 109.016L95.076 109.098C97.7765 110.042 100.618 110.523 103.481 110.52C104.056 110.52 104.611 110.5 105.129 110.461C106.391 110.384 107.644 110.211 108.879 109.946C109.557 109.798 110.233 109.622 110.886 109.422C111.044 109.375 111.191 109.33 111.351 109.28C114.015 108.419 116.519 107.127 118.761 105.455C118.581 105.116 118.384 104.786 118.171 104.467C117.018 102.712 115.444 101.272 113.591 100.276C111.739 99.2796 109.666 98.7594 107.561 98.7622H102.945C100.51 98.7627 98.1268 99.4602 96.0787 100.772C94.0305 102.083 92.404 103.953 91.3928 106.16C91.2311 106.511 91.0873 106.87 90.962 107.236Z" fill="#E6E6E6"/>
<path d="M107.306 109.728C107.012 109.75 106.728 109.849 106.484 110.015C107.722 109.938 108.952 109.768 110.164 109.506L107.306 109.728Z" fill="#2F2E41"/>
<path d="M104.862 59.65C99.2127 59.6506 93.722 61.5086 89.2417 64.9357C84.7614 68.3627 81.5422 73.1671 80.0837 78.6032C78.6251 84.0392 79.0089 89.8028 81.1754 94.9994C83.3419 100.196 87.17 104.535 92.0654 107.342C93.3649 108.092 94.729 108.724 96.1415 109.232L96.3815 109.315C99.1063 110.268 101.974 110.753 104.862 110.75C105.42 110.75 105.979 110.731 106.528 110.69C107.8 110.612 109.063 110.438 110.309 110.17C111.006 110.019 111.689 109.839 112.335 109.642C112.492 109.596 112.64 109.55 112.801 109.499C118.607 107.615 123.548 103.731 126.736 98.5432C129.923 93.3557 131.149 87.2057 130.192 81.1987C129.236 75.1917 126.159 69.7217 121.516 65.7718C116.873 61.8219 110.968 59.6512 104.862 59.65ZM119.744 104.34C117.531 106.041 115.04 107.349 112.381 108.207C112.238 108.253 112.09 108.299 111.943 108.345C111.329 108.533 110.683 108.699 110.018 108.841C108.84 109.098 107.644 109.264 106.44 109.338C105.919 109.375 105.388 109.393 104.862 109.393C102.128 109.395 99.414 108.936 96.8339 108.037L96.6079 107.959C95.2029 107.456 93.8489 106.821 92.5639 106.064C88.0889 103.44 84.5768 99.4549 82.5439 94.6949C80.5109 89.935 80.0643 84.651 81.2697 79.6195C82.475 74.588 85.2687 70.0743 89.2403 66.7416C93.2119 63.4089 98.1519 61.4329 103.334 61.1042C108.517 60.7754 113.669 62.1111 118.033 64.915C122.397 67.7188 125.743 71.8431 127.579 76.6816C129.416 81.5202 129.645 86.8179 128.235 91.7962C126.825 96.7746 123.849 101.171 119.744 104.34Z" fill="#CCCCCC"/>
<path d="M203.108 232.394H68.6732C66.9807 232.392 65.358 231.721 64.1612 230.529C62.9645 229.337 62.2913 227.721 62.2894 226.035V44.2458C62.2913 42.5599 62.9645 40.9436 64.1612 39.7515C65.358 38.5594 66.9807 37.8889 68.6732 37.887H203.108C204.801 37.8889 206.423 38.5594 207.62 39.7515C208.817 40.9436 209.49 42.5599 209.492 44.2458V226.035C209.49 227.721 208.817 229.337 207.62 230.529C206.423 231.721 204.801 232.392 203.108 232.394ZM68.6732 38.6351C67.1798 38.6367 65.748 39.2284 64.6921 40.2803C63.6361 41.3321 63.0421 42.7583 63.0404 44.2458V226.035C63.0421 227.523 63.6361 228.949 64.6921 230C65.748 231.052 67.1798 231.644 68.6732 231.646H203.108C204.601 231.644 206.033 231.052 207.089 230C208.145 228.949 208.739 227.523 208.741 226.035V44.2458C208.739 42.7583 208.145 41.3321 207.089 40.2803C206.033 39.2284 204.601 38.6368 203.108 38.6351L68.6732 38.6351Z" fill="#CCCCCC"/>
<path d="M177.083 85.1012H139.043C138.244 85.1012 137.479 84.7854 136.915 84.2232C136.35 83.661 136.033 82.8986 136.033 82.1035C136.033 81.3085 136.35 80.546 136.915 79.9838C137.479 79.4217 138.244 79.1058 139.043 79.1058H177.083C177.881 79.1058 178.647 79.4217 179.211 79.9838C179.775 80.546 180.093 81.3085 180.093 82.1035C180.093 82.8986 179.775 83.661 179.211 84.2232C178.647 84.7854 177.881 85.1012 177.083 85.1012Z" fill="#E6E6E6"/>
<path d="M189.497 95.2185H139.043C138.244 95.2185 137.479 94.9027 136.915 94.3405C136.35 93.7783 136.033 93.0159 136.033 92.2208C136.033 91.4258 136.35 90.6633 136.915 90.1011C137.479 89.539 138.244 89.2231 139.043 89.2231H189.497C190.295 89.2231 191.061 89.539 191.625 90.1011C192.189 90.6633 192.506 91.4258 192.506 92.2208C192.506 93.0159 192.189 93.7783 191.625 94.3405C191.061 94.9027 190.295 95.2185 189.497 95.2185Z" fill="#E6E6E6"/>
<path d="M177.028 134.022H82.2842C81.4861 134.022 80.7206 133.706 80.1562 133.144C79.5919 132.582 79.2748 131.82 79.2748 131.025C79.2748 130.23 79.5919 129.467 80.1562 128.905C80.7206 128.343 81.4861 128.027 82.2842 128.027H177.028C177.826 128.027 178.591 128.343 179.156 128.905C179.72 129.467 180.037 130.23 180.037 131.025C180.037 131.82 179.72 132.582 179.156 133.144C178.591 133.706 177.826 134.022 177.028 134.022Z" fill="#E6E6E6"/>
<path d="M189.442 144.139H82.2842C81.4861 144.139 80.7206 143.824 80.1562 143.261C79.5919 142.699 79.2748 141.937 79.2748 141.142C79.2748 140.347 79.5919 139.584 80.1562 139.022C80.7206 138.46 81.4861 138.144 82.2842 138.144H189.442C190.24 138.144 191.005 138.46 191.57 139.022C192.134 139.584 192.451 140.347 192.451 141.142C192.451 141.937 192.134 142.699 191.57 143.261C191.005 143.824 190.24 144.139 189.442 144.139Z" fill="#E6E6E6"/>
<path d="M177.028 167.393H82.2842C81.4861 167.393 80.7206 167.077 80.1562 166.515C79.5919 165.952 79.2748 165.19 79.2748 164.395C79.2748 163.6 79.5919 162.837 80.1562 162.275C80.7206 161.713 81.4861 161.397 82.2842 161.397H177.028C177.826 161.397 178.591 161.713 179.156 162.275C179.72 162.837 180.037 163.6 180.037 164.395C180.037 165.19 179.72 165.952 179.156 166.515C178.591 167.077 177.826 167.393 177.028 167.393Z" fill="#E6E6E6"/>
<path d="M189.442 177.51H82.2842C81.4861 177.51 80.7206 177.194 80.1562 176.632C79.5919 176.07 79.2748 175.307 79.2748 174.512C79.2748 173.717 79.5919 172.955 80.1562 172.392C80.7206 171.83 81.4861 171.514 82.2842 171.514H189.442C190.24 171.514 191.005 171.83 191.57 172.392C192.134 172.955 192.451 173.717 192.451 174.512C192.451 175.307 192.134 176.07 191.57 176.632C191.005 177.194 190.24 177.51 189.442 177.51Z" fill="#E6E6E6"/>
<path d="M177.028 200.763H82.2842C81.4861 200.763 80.7206 200.447 80.1562 199.885C79.5919 199.323 79.2748 198.56 79.2748 197.765C79.2748 196.97 79.5919 196.208 80.1562 195.646C80.7206 195.084 81.4861 194.768 82.2842 194.768H177.028C177.826 194.768 178.591 195.084 179.156 195.646C179.72 196.208 180.037 196.97 180.037 197.765C180.037 198.56 179.72 199.323 179.156 199.885C178.591 200.447 177.826 200.763 177.028 200.763Z" fill="#E6E6E6"/>
<path d="M189.442 210.88H82.2842C81.4861 210.88 80.7206 210.564 80.1562 210.002C79.5919 209.44 79.2748 208.678 79.2748 207.883C79.2748 207.088 79.5919 206.325 80.1562 205.763C80.7206 205.201 81.4861 204.885 82.2842 204.885H189.442C190.239 204.886 191.004 205.202 191.567 205.764C192.131 206.326 192.447 207.088 192.447 207.883C192.447 208.677 192.131 209.439 191.567 210.001C191.004 210.563 190.239 210.879 189.442 210.88Z" fill="#E6E6E6"/>
<path d="M259.188 108.577C259.312 107.438 259.081 106.289 258.526 105.285C257.972 104.281 257.12 103.472 256.087 102.968L152.481 52.5268C151.822 52.2058 151.106 52.0171 150.374 51.9716C149.642 51.9261 148.908 52.0247 148.214 52.2617C147.52 52.4988 146.88 52.8696 146.33 53.353C145.78 53.8365 145.331 54.4231 145.009 55.0794L145.007 55.0833L106.148 134.28C105.499 135.606 105.405 137.135 105.887 138.53C106.368 139.926 107.385 141.074 108.714 141.724L212.321 192.165C213.653 192.811 215.187 192.904 216.588 192.425C217.989 191.946 219.142 190.933 219.795 189.608L258.654 110.412C258.938 109.836 259.119 109.215 259.188 108.577Z" fill="white"/>
<path d="M259.188 108.577C259.312 107.438 259.081 106.289 258.526 105.285C257.972 104.281 257.12 103.472 256.087 102.968L152.481 52.5268C151.822 52.2058 151.106 52.0171 150.374 51.9716C149.642 51.9261 148.908 52.0247 148.214 52.2617C147.52 52.4988 146.88 52.8696 146.33 53.353C145.78 53.8365 145.331 54.4231 145.009 55.0794L145.007 55.0833L106.148 134.28C105.499 135.606 105.405 137.135 105.887 138.53C106.368 139.926 107.385 141.074 108.714 141.724L212.321 192.165C213.653 192.811 215.187 192.904 216.588 192.425C217.989 191.946 219.142 190.933 219.795 189.608L258.654 110.412C258.938 109.836 259.119 109.215 259.188 108.577ZM219.204 189.321C218.629 190.49 217.611 191.384 216.375 191.807C215.139 192.23 213.785 192.147 212.61 191.576L109.003 141.136C107.83 140.562 106.932 139.549 106.508 138.318C106.083 137.086 106.166 135.737 106.739 134.567L145.598 55.3708C146.173 54.2018 147.191 53.3078 148.427 52.8849C149.663 52.4621 151.017 52.5448 152.192 53.1151L255.799 103.556C256.972 104.129 257.87 105.142 258.294 106.374C258.719 107.605 258.636 108.954 258.063 110.125L219.204 189.321Z" fill="#3F3D56"/>
<path d="M247.888 112.178L220.754 167.478C220.573 167.847 220.252 168.13 219.862 168.263C219.472 168.397 219.045 168.371 218.674 168.191L124.43 122.308C124.362 122.276 124.298 122.238 124.237 122.195C123.928 121.985 123.705 121.672 123.609 121.312C123.513 120.952 123.551 120.57 123.715 120.235L150.849 64.9348C150.939 64.752 151.064 64.5885 151.217 64.4538C151.37 64.3191 151.548 64.2157 151.741 64.1496C151.934 64.0834 152.139 64.0558 152.342 64.0684C152.546 64.0809 152.746 64.1333 152.929 64.2225L247.173 110.105C247.544 110.286 247.828 110.605 247.962 110.994C248.096 111.382 248.069 111.808 247.888 112.177L247.888 112.178Z" fill="#E6E6E6"/>
<path d="M165.148 109.37C172.686 109.37 178.797 103.283 178.797 95.7743C178.797 88.2658 172.686 82.179 165.148 82.179C157.61 82.179 151.5 88.2658 151.5 95.7743C151.5 103.283 157.61 109.37 165.148 109.37Z" fill="#22D3EE"/>
<path d="M185.132 152.136L124.977 122.849C124.902 122.813 124.829 122.771 124.761 122.722L177.298 87.4848C177.622 87.2636 177.998 87.132 178.39 87.1034C178.781 87.0747 179.173 87.1501 179.526 87.3217C179.879 87.4934 180.179 87.7552 180.397 88.0805C180.615 88.4057 180.742 88.7828 180.766 89.173L183.696 131.411L183.837 133.433L185.132 152.136Z" fill="#3F3D56"/>
<path opacity="0.2" d="M185.132 152.136L164.594 142.136L181.834 132.457L183.076 131.76L183.696 131.411L183.837 133.432L185.132 152.136Z" fill="black"/>
<path d="M218.626 168.442L166.597 143.112L183.837 133.433L185.078 132.735L207.544 120.121C209.017 119.294 211.127 120.225 211.606 121.807C211.637 121.914 211.662 122.023 211.68 122.134L218.626 168.442Z" fill="#3F3D56"/>
<path d="M58.092 173.269L63.751 173.268L66.4437 151.525L58.0907 151.525L58.092 173.269Z" fill="#FFB8B8"/>
<path d="M56.6483 171.428L67.7935 171.428C68.7262 171.428 69.6503 171.611 70.5121 171.966C71.3738 172.322 72.1568 172.843 72.8163 173.5C73.4759 174.157 73.9991 174.937 74.356 175.795C74.713 176.654 74.8967 177.574 74.8967 178.503V178.733L56.6486 178.733L56.6483 171.428Z" fill="#2F2E41"/>
<path d="M14.1029 169.68L19.9664 170.822L27.1806 148.838L18.5271 147.152L14.1029 169.68Z" fill="#FFB8B8"/>
<path d="M12.982 167.481L24.5291 169.731L24.5296 169.731C25.4959 169.92 26.4156 170.296 27.2361 170.838C28.0565 171.38 28.7617 172.078 29.3113 172.892C29.861 173.706 30.2443 174.62 30.4394 175.581C30.6345 176.542 30.6377 177.533 30.4486 178.495L30.4018 178.733L11.4958 175.05L12.982 167.481Z" fill="#2F2E41"/>
<path d="M66.3255 98.2627C66.1339 97.6142 65.8019 97.0155 65.3528 96.5087C64.9038 96.0018 64.3487 95.5992 63.7265 95.3292C63.1044 95.0592 62.4304 94.9284 61.752 94.9459C61.0736 94.9635 60.4073 95.129 59.8001 95.4307L48.0038 83.9448L46.3762 92.3282L57.8277 101.95C58.4042 102.933 59.3226 103.67 60.4088 104.024C61.4949 104.377 62.6734 104.321 63.7209 103.866C64.7683 103.412 65.612 102.59 66.0921 101.557C66.5721 100.525 66.6552 99.3524 66.3255 98.2627Z" fill="#FFB8B8"/>
<path d="M22.5598 39.1429C28.8215 39.1429 33.8976 34.0866 33.8976 27.8493C33.8976 21.612 28.8215 16.5557 22.5598 16.5557C16.2981 16.5557 11.2219 21.612 11.2219 27.8493C11.2219 34.0866 16.2981 39.1429 22.5598 39.1429Z" fill="#FFB8B8"/>
<path d="M20.179 39.3159C20.7814 39.5784 22.015 34.7971 21.4624 33.8408C20.6406 32.4186 20.6892 32.4288 20.1436 31.4879C19.5981 30.547 19.476 29.2591 20.1825 28.4312C20.8889 27.6033 22.5238 27.7131 22.8462 28.7511C22.6388 26.7795 24.5966 25.1946 26.5359 24.7493C28.4753 24.3039 30.5209 24.5804 32.4708 24.1841C34.7339 23.7241 37.0885 21.8345 36.1856 19.3556C36.0306 18.9429 35.7987 18.5632 35.5019 18.2364C34.4587 17.068 32.9994 16.5691 31.5726 16.0868C28.6044 15.0832 25.5549 14.0671 22.4223 14.1779C19.8412 14.3123 17.3555 15.1933 15.2692 16.7131C13.183 18.2328 11.5867 20.3254 10.6758 22.7347C10.4599 23.3375 10.2927 23.9564 10.1757 24.5857C9.10047 30.3445 12.4578 36.025 17.9107 38.218L20.179 39.3159Z" fill="#2F2E41"/>
<path d="M17.3953 101.356C17.1061 101.182 16.8744 100.928 16.7285 100.624C16.5827 100.32 16.5292 99.9809 16.5746 99.6473L11.4584 74.4027L6.27245 55.0283C5.70311 52.9054 5.87517 50.6527 6.76019 48.6399C7.64521 46.6271 9.19074 44.9737 11.1432 43.9509L14.5717 40.7196L22.051 43.9294L25.605 47.5289C28.1541 48.7652 30.4153 50.5191 32.2433 52.6779C34.0712 54.8367 35.4255 57.3526 36.2191 60.0639L41.9194 79.4935L55.0835 99.002C55.3033 99.3272 55.4061 99.7168 55.3751 100.108C55.3442 100.498 55.1813 100.867 54.913 101.154C53.0816 103.116 17.3953 101.356 17.3953 101.356Z" fill="#2F2E41"/>
<path d="M51.8844 99.5629L32.473 86.1639C29.8272 84.3251 27.9119 81.6211 27.0596 78.5217L21.6033 58.6763C21.4001 57.9493 21.3454 57.1891 21.4422 56.4407C21.539 55.6923 21.7855 54.9708 22.167 54.3188C22.6851 53.4186 23.4477 52.6822 24.3671 52.1942C25.2865 51.7063 26.3254 51.4866 27.3645 51.5603C28.4036 51.6341 29.4008 51.9984 30.2414 52.6113C31.0821 53.2241 31.7321 54.0608 32.1168 55.0251L40.2088 74.8526L57.4503 91.1515C57.6444 91.3862 57.7734 91.6673 57.8247 91.967C57.876 92.2667 57.8478 92.5746 57.7428 92.8601L54.4592 98.7075C54.3452 99.0445 54.1281 99.3374 53.8385 99.5453C53.5488 99.7531 53.2011 99.8655 52.8442 99.8665C52.5005 99.866 52.1654 99.76 51.8844 99.5629Z" fill="#2F2E41"/>
<path d="M11.5573 166.314C11.3986 166.088 11.297 165.826 11.261 165.552C11.2251 165.278 11.2558 165 11.3507 164.74L20.3309 132.222L20.9947 100.359L51.2245 98.2938L51.3712 98.2839L60.4762 114.722C63.3269 119.861 65.072 125.536 65.6004 131.384L68.6009 164.136C68.6462 164.582 68.5145 165.027 68.2339 165.376C67.9533 165.726 67.5463 165.951 67.1003 166.005L57.9853 166.869C57.5462 166.922 57.1035 166.802 56.7517 166.535C56.4 166.268 56.167 165.874 56.1025 165.438L52.4012 132.155L39.0836 109.741L34.6133 133.338L25.3519 165.925C25.2308 166.251 25.0132 166.532 24.7281 166.731C24.443 166.93 24.1038 167.038 23.7555 167.041L12.9535 167.045C12.6785 167.047 12.4074 166.981 12.1639 166.853C11.9205 166.726 11.7122 166.541 11.5573 166.314Z" fill="#2F2E41"/>
<path d="M243.026 273.263H15.2334C11.1947 273.259 7.32265 271.659 4.46681 268.814C1.61097 265.969 0.00456218 262.112 0 258.089V133.479C0.00456218 129.456 1.61097 125.599 4.46681 122.754C7.32265 119.909 11.1947 118.309 15.2334 118.305H43.1627C46.9522 118.301 50.6063 119.708 53.4083 122.25L83.6959 143.793C85.6705 145.59 88.2493 146.586 90.9243 146.583H244.441C246.46 146.583 248.459 146.983 250.322 147.76C252.184 148.536 253.873 149.674 255.291 151.107C256.708 152.539 257.825 154.238 258.578 156.105C259.33 157.971 259.702 159.968 259.673 161.979L258.258 258.311C258.183 262.292 256.548 266.085 253.701 268.879C250.854 271.673 247.023 273.247 243.026 273.263Z" fill="white"/>
<path d="M241.003 265.906H16.5811C14.6328 265.904 12.7649 265.132 11.3872 263.76C10.0095 262.388 9.23459 260.527 9.23239 258.586V131.938C9.2346 129.997 10.0095 128.137 11.3872 126.764C12.7649 125.392 14.6328 124.62 16.5811 124.618C18.3044 124.62 19.9565 125.302 21.1751 126.516C22.3936 127.73 23.079 129.376 23.081 131.092V249.85C23.083 251.669 23.8093 253.412 25.1005 254.698C26.3916 255.984 28.1421 256.708 29.9681 256.71H240.245C241.289 256.698 242.308 257.036 243.137 257.668C243.967 258.3 244.56 259.191 244.822 260.199C245.115 261.154 245.079 262.18 244.718 263.112C244.358 264.044 243.694 264.829 242.834 265.342C242.288 265.696 241.654 265.891 241.003 265.906Z" fill="#F2F2F2"/>
<path d="M130.834 205.085L130.243 204.496C130.121 204.382 130.049 204.224 130.044 204.057C130.038 203.89 130.099 203.728 130.214 203.606C130.223 203.596 130.233 203.586 130.243 203.577L135.427 198.408C135.484 198.348 135.552 198.299 135.628 198.265C135.703 198.231 135.785 198.212 135.868 198.209C135.951 198.207 136.034 198.22 136.112 198.249C136.189 198.278 136.261 198.323 136.321 198.379C136.331 198.389 136.341 198.398 136.351 198.408L141.535 203.572C141.595 203.63 141.644 203.7 141.677 203.777C141.711 203.854 141.729 203.937 141.73 204.021C141.732 204.105 141.717 204.188 141.686 204.266C141.655 204.344 141.609 204.415 141.55 204.476L141.535 204.492L140.944 205.08C140.885 205.141 140.815 205.189 140.738 205.222C140.661 205.256 140.578 205.274 140.493 205.275C140.409 205.277 140.325 205.262 140.247 205.231C140.169 205.2 140.097 205.154 140.036 205.096L140.02 205.08L136.955 201.862V209.499C136.956 209.582 136.94 209.665 136.909 209.742C136.877 209.82 136.831 209.89 136.772 209.949C136.713 210.009 136.643 210.056 136.566 210.088C136.489 210.121 136.407 210.138 136.323 210.138L136.318 210.138H135.464C135.294 210.138 135.131 210.071 135.011 209.951C134.89 209.831 134.823 209.669 134.823 209.499V201.871L131.757 205.09C131.639 205.211 131.476 205.28 131.306 205.282C131.136 205.285 130.972 205.219 130.85 205.101L130.834 205.085Z" fill="#22D3EE"/>
<path d="M135.88 193.714C137.96 193.714 139.994 194.328 141.724 195.48C143.455 196.631 144.803 198.268 145.599 200.183C146.395 202.097 146.604 204.204 146.198 206.237C145.792 208.27 144.79 210.137 143.319 211.603C141.847 213.068 139.973 214.066 137.932 214.471C135.891 214.875 133.776 214.668 131.854 213.874C129.931 213.081 128.288 211.738 127.132 210.015C125.976 208.291 125.359 206.265 125.359 204.193C125.362 201.414 126.471 198.75 128.443 196.786C130.416 194.821 133.09 193.716 135.88 193.714ZM135.88 192.334C133.525 192.334 131.223 193.03 129.266 194.333C127.308 195.636 125.782 197.488 124.881 199.655C123.98 201.822 123.744 204.206 124.203 206.506C124.663 208.807 125.796 210.92 127.461 212.578C129.126 214.237 131.248 215.366 133.557 215.824C135.866 216.281 138.26 216.046 140.436 215.149C142.611 214.251 144.47 212.731 145.778 210.781C147.087 208.831 147.785 206.538 147.785 204.193C147.785 201.048 146.531 198.031 144.298 195.807C142.065 193.584 139.037 192.334 135.88 192.334Z" fill="#3F3D56"/>
<path d="M243.026 273.263H15.2334C11.1947 273.259 7.32265 271.659 4.46681 268.814C1.61097 265.969 0.00456218 262.112 0 258.089V133.479C0.00456218 129.456 1.61097 125.599 4.46681 122.754C7.32265 119.909 11.1947 118.309 15.2334 118.305H43.1627C46.9522 118.301 50.6063 119.708 53.4083 122.25L83.6959 143.793C85.6705 145.59 88.2493 146.586 90.9243 146.583H244.441C246.46 146.583 248.459 146.983 250.322 147.76C252.184 148.536 253.873 149.674 255.291 151.107C256.708 152.539 257.825 154.238 258.578 156.105C259.33 157.971 259.702 159.968 259.673 161.979L258.258 258.311C258.183 262.292 256.548 266.085 253.701 268.879C250.854 271.673 247.023 273.247 243.026 273.263ZM15.2334 119.224C11.4395 119.229 7.80211 120.732 5.11937 123.404C2.43662 126.076 0.927551 129.699 0.923239 133.479V258.089C0.927551 261.869 2.43662 265.492 5.11937 268.164C7.80211 270.836 11.4395 272.34 15.2334 272.344H243.026C246.781 272.329 250.38 270.85 253.054 268.225C255.728 265.6 257.265 262.037 257.335 258.298L258.749 161.966C258.777 160.077 258.428 158.201 257.721 156.447C257.014 154.694 255.965 153.098 254.633 151.752C253.302 150.406 251.715 149.338 249.965 148.608C248.215 147.879 246.338 147.503 244.441 147.503H90.9243C88.0287 147.506 85.2364 146.431 83.0942 144.491L52.8068 122.948C50.1722 120.55 46.7316 119.221 43.1627 119.224H15.2334Z" fill="#3F3D56"/>
<path d="M262.331 275.689H256.672L254.903 253.945L262.332 253.946L262.331 275.689Z" fill="#FFB8B8"/>
<path d="M263.775 281.154L245.527 281.153V280.924C245.527 279.994 245.71 279.074 246.067 278.216C246.424 277.358 246.947 276.578 247.607 275.921C248.266 275.264 249.049 274.743 249.911 274.387C250.773 274.032 251.697 273.849 252.629 273.849L263.775 273.849L263.775 281.154Z" fill="#2F2E41"/>
<path d="M325.573 275.689H319.914L317.222 253.945L325.574 253.946L325.573 275.689Z" fill="#FFB8B8"/>
<path d="M327.016 281.154L308.768 281.153V280.924C308.768 279.994 308.952 279.074 309.309 278.216C309.666 277.358 310.189 276.578 310.849 275.921C311.508 275.264 312.291 274.743 313.153 274.387C314.015 274.032 314.938 273.849 315.871 273.849L327.017 273.849L327.016 281.154Z" fill="#2F2E41"/>
<path d="M306.965 208.471C307.746 207.559 308.186 206.405 308.211 205.206C308.235 204.008 307.843 202.838 307.099 201.895C306.949 201.714 306.783 201.546 306.605 201.393L310.868 185.717L303.763 188.065L300.804 202.591C300.313 203.486 300.096 204.506 300.18 205.523C300.263 206.54 300.643 207.511 301.274 208.315C301.604 208.749 302.027 209.104 302.513 209.353C302.999 209.603 303.536 209.74 304.082 209.755C304.628 209.769 305.171 209.662 305.67 209.44C306.169 209.217 306.612 208.886 306.965 208.471Z" fill="#FFB8B8"/>
<path d="M306.691 198.828C306.602 198.828 306.513 198.821 306.425 198.808L302.723 198.252C302.435 198.202 302.162 198.091 301.921 197.925C301.681 197.759 301.48 197.543 301.333 197.292C301.012 196.757 300.897 196.124 301.008 195.511L305.627 169.816L302.494 153.308C301.89 150.131 303.448 146.922 306.119 145.844C306.911 145.521 307.773 145.408 308.622 145.517C309.471 145.625 310.277 145.951 310.962 146.462C311.701 147.019 312.314 147.725 312.761 148.534C313.208 149.343 313.479 150.236 313.557 151.156L315.774 172.205L315.748 172.296L308.613 197.241C308.51 197.678 308.267 198.069 307.92 198.356C307.573 198.642 307.141 198.808 306.691 198.828Z" fill="#22D3EE"/>
<path d="M305.598 136.746C311.86 136.746 316.936 131.69 316.936 125.453C316.936 119.216 311.86 114.159 305.598 114.159C299.336 114.159 294.26 119.216 294.26 125.453C294.26 131.69 299.336 136.746 305.598 136.746Z" fill="#FFB8B8"/>
<path d="M299.793 177.951C299.511 177.951 299.231 177.899 298.967 177.797L281.047 170.932C280.562 170.747 280.154 170.405 279.889 169.96C279.624 169.515 279.518 168.994 279.588 168.482L280.307 163.105C279.88 161.199 279.92 159.219 280.422 157.331C280.924 155.443 281.874 153.703 283.192 152.258L283.629 151.78L288.931 142.149C289.29 141.497 289.775 140.922 290.359 140.457C290.942 139.992 291.612 139.647 292.33 139.442C293.048 139.236 293.8 139.174 294.542 139.26C295.284 139.345 296.002 139.576 296.654 139.939L306.017 145.15C307.249 145.835 308.179 146.955 308.625 148.289C309.885 152.065 309.791 156.159 308.36 159.874L301.95 176.477C301.781 176.91 301.484 177.282 301.1 177.545C300.715 177.807 300.26 177.949 299.793 177.951Z" fill="#22D3EE"/>
<path d="M252.829 270.351L252.805 270.346C252.499 270.287 252.209 270.168 251.95 269.994C251.692 269.821 251.472 269.598 251.303 269.337C251.134 269.077 251.019 268.785 250.966 268.48C250.913 268.174 250.923 267.861 250.994 267.56L264.727 207.765C266.975 198.286 270.081 189.029 274.006 180.109L279.849 166.84L301.649 176.754L304.762 182.425C307.189 188.74 308.437 195.445 308.444 202.207L330.595 266.872C330.704 267.188 330.742 267.523 330.706 267.855C330.671 268.187 330.564 268.507 330.393 268.793C330.221 269.08 329.989 269.326 329.712 269.514C329.435 269.702 329.121 269.828 328.791 269.882L316.664 269.746C316.55 269.766 316.434 269.776 316.318 269.775C315.858 269.775 315.409 269.638 315.028 269.381C314.648 269.124 314.354 268.759 314.184 268.334L288.863 202.954C288.826 202.867 288.765 202.793 288.685 202.742C288.606 202.691 288.513 202.666 288.419 202.669C288.326 202.67 288.237 202.7 288.162 202.754C288.088 202.808 288.032 202.884 288.002 202.971L263.976 268.676C263.791 269.187 263.431 269.616 262.958 269.886C262.486 270.157 261.932 270.251 261.396 270.152L252.829 270.351Z" fill="#2F2E41"/>
<path d="M269.407 196.818C270.047 196.592 270.629 196.228 271.112 195.754C271.595 195.279 271.968 194.704 272.204 194.071C272.44 193.437 272.534 192.759 272.478 192.086C272.423 191.412 272.22 190.758 271.884 190.171L282.743 177.802L274.249 176.648L265.24 188.571C264.287 189.199 263.598 190.154 263.305 191.253C263.011 192.353 263.133 193.522 263.646 194.539C264.16 195.555 265.03 196.349 266.092 196.769C267.154 197.189 268.334 197.207 269.407 196.818Z" fill="#FFB8B8"/>
<path d="M274.526 188.105C274.148 188.104 273.776 188.012 273.442 187.835L269.621 185.805C269.341 185.656 269.094 185.451 268.897 185.203C268.7 184.955 268.557 184.668 268.476 184.362C268.395 184.056 268.378 183.737 268.427 183.424C268.475 183.111 268.588 182.812 268.759 182.544L282.872 160.392L285.32 143.674C285.446 142.81 285.747 141.981 286.205 141.236C286.663 140.492 287.268 139.847 287.983 139.342C288.698 138.837 289.508 138.482 290.365 138.298C291.222 138.114 292.108 138.105 292.968 138.272C293.828 138.438 294.646 138.777 295.371 139.268C296.096 139.759 296.714 140.391 297.186 141.126C297.659 141.862 297.977 142.685 298.121 143.546C298.265 144.407 298.232 145.289 298.024 146.137L292.971 166.742L276.324 187.252C276.107 187.519 275.833 187.734 275.522 187.882C275.211 188.03 274.871 188.106 274.526 188.105Z" fill="#22D3EE"/>
<path d="M295.393 116.135C296.704 111.851 304.281 109.94 310.579 111.717C316.877 113.494 321.402 118.154 322.455 122.711C324.787 132.8 312.622 140.989 314.826 151.079C316.285 157.755 324.722 164.068 334.224 165.592C323.752 167.774 310.971 165.856 301.26 160.645C295.216 157.401 290.145 152.506 290.222 147.569C290.268 144.58 292.177 141.937 294.512 139.653C296.846 137.37 299.641 135.34 301.783 132.956C303.926 130.572 305.41 127.718 304.785 124.692C304.16 121.666 300.983 118.511 296.709 117.63L295.393 116.135Z" fill="#2F2E41"/>
<path d="M358.538 282H182.661C182.539 282 182.422 281.952 182.335 281.865C182.248 281.779 182.2 281.662 182.2 281.54C182.2 281.418 182.248 281.301 182.335 281.215C182.422 281.129 182.539 281.08 182.661 281.08H358.538C358.661 281.08 358.778 281.129 358.865 281.215C358.951 281.301 359 281.418 359 281.54C359 281.662 358.951 281.779 358.865 281.865C358.778 281.952 358.661 282 358.538 282Z" fill="#CCCCCC"/>
</g>
<defs>
<clipPath id="clip0_209_193">
<rect width="359" height="282" fill="white"/>
</clipPath>
</defs>
</svg>
