<svg width="431" height="226" viewBox="0 0 431 226" fill="none" xmlns="http://www.w3.org/2000/svg">
<g clip-path="url(#clip0_209_246)">
<path d="M430.084 164.736C427.827 179.066 420.832 192.975 409.289 201.777C397.928 210.446 383.373 213.526 369.323 216.173C352.471 219.353 335.573 222.259 318.629 224.892C316.227 225.274 313.823 225.644 311.418 226H212.726C212.626 225.867 212.521 225.729 212.421 225.59C212.26 225.357 212.1 225.125 211.944 224.892C211.856 224.759 211.767 224.621 211.678 224.482H273.582C275.339 224.481 277.023 223.784 278.266 222.544C279.508 221.304 280.208 219.623 280.211 217.868V135.356C280.61 134.104 280.982 132.847 281.32 131.573C282.899 125.64 283.926 119.575 284.388 113.454C284.72 109.189 284.82 104.923 284.748 100.653C284.543 88.915 283.007 77.1774 281.337 65.5229C281.215 64.6643 281.087 63.8001 280.965 62.9416C279.789 54.8432 278.719 46.0303 282.807 38.9345C287.483 30.814 297.861 27.4295 307.208 28.2604C324.021 29.7615 338.182 42.6181 345.543 57.7901C352.898 72.9565 354.546 90.2057 355.217 107.045C355.572 115.974 355.533 125.302 354.285 134.259C358.501 124.632 362.72 115.005 366.943 105.378C369.195 100.243 371.564 94.9417 375.735 91.1861C384.455 83.3259 398.877 84.9102 408.19 92.0669C417.498 99.2291 422.601 110.546 425.996 121.774C430.201 135.661 432.348 150.406 430.084 164.736Z" fill="#F2F2F2"/>
<path d="M392.891 86.903C398.988 97.6869 401.786 110.053 401.719 122.393C401.624 134.627 398.914 146.701 393.769 157.805C389.116 167.831 382.632 176.904 374.651 184.558C366.774 192.196 357.427 198.158 347.176 202.085C335.281 206.537 322.416 207.757 309.894 205.622C308.154 205.324 306.428 204.962 304.714 204.537C303.674 204.281 303.231 205.883 304.272 206.139C317.301 209.364 330.966 208.972 343.789 205.004C354.469 201.573 364.324 195.975 372.735 188.56C381.25 181.126 388.292 172.161 393.495 162.131C399.188 151.151 402.509 139.099 403.244 126.756C403.97 114.231 401.868 101.483 396.444 90.1207C395.786 88.7439 395.081 87.3918 394.328 86.0642C394.213 85.882 394.031 85.7515 393.821 85.7004C393.611 85.6494 393.39 85.6816 393.204 85.7904C393.017 85.8992 392.88 86.076 392.822 86.2836C392.764 86.4911 392.788 86.7132 392.891 86.903Z" fill="white"/>
<path d="M304.578 28.0406C311.339 40.4857 316.607 53.683 320.274 67.3596C327.616 94.7517 328.721 123.438 323.51 151.312C320.908 165.239 316.665 178.809 310.869 191.74C305.089 204.562 296.769 218.071 282.556 222.561C280.952 223.065 279.308 223.432 277.641 223.658C276.585 223.803 277.035 225.404 278.084 225.26C292.786 223.245 303.002 211.048 309.409 198.615C316.038 185.75 320.758 171.779 323.898 157.675C330.119 129.531 329.895 100.348 323.243 72.3031C319.938 58.332 314.999 44.7977 308.527 31.9793C307.714 30.374 306.877 28.7815 306.015 27.2019C305.503 26.2622 304.065 27.1 304.578 28.0406Z" fill="white"/>
<path d="M234.992 25.6237H135.368C133.346 25.6263 131.408 26.4295 129.978 27.8573C128.548 29.2851 127.744 31.2209 127.741 33.2401V83.0877H143.073C144.194 83.0846 145.298 83.3674 146.279 83.9093C147.261 84.4511 148.087 85.2341 148.681 86.1841L153.995 94.6315L159.076 102.702L160.03 104.22L165.843 113.454L165.91 113.559H242.619V33.2401C242.616 31.2209 241.812 29.2851 240.382 27.8573C238.952 26.4295 237.014 25.6263 234.992 25.6237Z" fill="#CCCCCC"/>
<path d="M195.503 40.8621H146.14C144.832 40.8621 143.577 41.3812 142.652 42.3052C141.726 43.2292 141.206 44.4824 141.206 45.7892C141.206 47.096 141.726 48.3492 142.652 49.2732C143.577 50.1973 144.832 50.7164 146.14 50.7164H195.503C196.812 50.7164 198.067 50.1973 198.992 49.2732C199.917 48.3492 200.437 47.096 200.437 45.7892C200.437 44.4824 199.917 43.2292 198.992 42.3052C198.067 41.3812 196.812 40.8621 195.503 40.8621Z" fill="white"/>
<path d="M222.877 65.0575H146.59C145.161 65.0575 143.791 65.6242 142.781 66.6329C141.771 67.6415 141.204 69.0096 141.204 70.4361C141.204 71.8626 141.771 73.2306 142.781 74.2393C143.791 75.248 145.161 75.8147 146.59 75.8147H222.877C224.306 75.8147 225.676 75.248 226.686 74.2393C227.696 73.2306 228.263 71.8626 228.263 70.4361C228.263 69.0096 227.696 67.6415 226.686 66.6329C225.676 65.6242 224.306 65.0575 222.877 65.0575Z" fill="white"/>
<path d="M227.748 86.9763C227.314 86.0516 226.626 85.2692 225.763 84.7209C224.901 84.1725 223.9 83.8808 222.877 83.8799H146.59C146.473 83.8799 146.362 83.8854 146.246 83.891C147.241 84.434 148.08 85.2238 148.681 86.1842L153.995 94.6315H222.877C223.783 94.6318 224.674 94.4036 225.468 93.9681C226.262 93.5326 226.933 92.904 227.419 92.1405C227.905 91.3769 228.19 90.5033 228.247 89.6005C228.304 88.6977 228.133 87.7951 227.748 86.9763Z" fill="white"/>
<path d="M228.208 107.355C228.033 106.067 227.396 104.886 226.416 104.031C225.436 103.176 224.179 102.704 222.877 102.702H159.076L160.03 104.22L165.843 113.454H222.877C223.998 113.456 225.091 113.105 226 112.451C226.699 111.954 227.268 111.298 227.661 110.537C228.053 109.775 228.258 108.931 228.258 108.075C228.258 107.834 228.242 107.594 228.208 107.355Z" fill="white"/>
<path d="M289.103 68.5527L281.337 65.5227L242.619 50.4338L196.296 32.3815C194.411 31.6508 192.312 31.6964 190.46 32.5084C188.608 33.3204 187.154 34.8324 186.417 36.7132L184.797 40.862L180.942 50.7163L175.34 65.0574L171.135 75.8146L167.984 83.8798L163.78 94.6314L160.624 102.702L160.535 102.935L160.03 104.22L165.843 113.454L165.91 113.559H273.582C274.571 113.558 275.547 113.779 276.438 114.204C277.33 114.63 278.115 115.25 278.735 116.018L279.19 114.866L284.748 100.653L293.435 78.4236C294.168 76.5407 294.124 74.4443 293.312 72.594C292.5 70.7436 290.986 69.2903 289.103 68.5527Z" fill="#22D3EE"/>
<path d="M246.768 68.4087L242.619 66.7913L200.784 50.4893C199.564 50.0179 198.207 50.0474 197.009 50.5714C195.81 51.0955 194.868 52.0716 194.388 53.2866C193.915 54.5055 193.945 55.8617 194.471 57.0586C194.997 58.2555 195.976 59.1956 197.195 59.6734L211.012 65.0575L228.103 71.7157L242.619 77.3768L243.179 77.5928C244.398 78.0654 245.755 78.0357 246.952 77.5101C248.149 76.9846 249.089 76.0061 249.564 74.7896C250.039 73.5731 250.012 72.218 249.488 71.0217C248.964 69.8253 247.986 68.8856 246.768 68.4087Z" fill="white"/>
<path d="M263.453 100.891L242.619 92.7703L227.748 86.9763L219.804 83.8798L199.114 75.8147L192.391 73.1947C191.137 72.7057 189.745 72.7034 188.489 73.1884C187.234 73.6733 186.205 74.6103 185.607 75.8147C185.541 75.9532 185.474 76.0972 185.419 76.2468C185.161 76.9044 185.036 77.6061 185.051 78.3119C185.065 79.0178 185.219 79.7138 185.503 80.3604C185.786 81.007 186.195 81.5914 186.705 82.0803C187.215 82.5691 187.817 82.9529 188.475 83.2096L190.194 83.8798L217.774 94.6315L242.619 104.314L259.537 110.911C260.159 111.154 260.822 111.278 261.49 111.277C262.746 111.279 263.963 110.843 264.931 110.043C265.899 109.243 266.557 108.131 266.79 106.898C267.023 105.665 266.817 104.39 266.207 103.293C265.598 102.196 264.624 101.346 263.453 100.891Z" fill="white"/>
<path d="M242.619 112.972L241.282 112.451L228.208 107.355L216.265 102.702L195.553 94.6314L185.535 90.7263C184.876 90.4688 184.172 90.3436 183.465 90.3578C182.757 90.372 182.059 90.5254 181.411 90.8091C180.763 91.0929 180.177 91.5014 179.687 92.0114C179.197 92.5215 178.813 93.1229 178.556 93.7814C178.299 94.4399 178.174 95.1426 178.19 95.8492C178.205 96.5557 178.359 97.2524 178.644 97.8993C178.929 98.5463 179.339 99.1307 179.851 99.6193C180.362 100.108 180.965 100.491 181.625 100.747L186.639 102.702L211.656 112.451L214.229 113.454L214.496 113.559H244.122L242.619 112.972Z" fill="white"/>
<path d="M192.014 113.454L189.44 112.451L178.684 108.258C177.933 107.964 177.125 107.843 176.32 107.903C175.516 107.964 174.735 108.204 174.036 108.607C173.337 109.01 172.738 109.564 172.282 110.23C171.827 110.895 171.528 111.655 171.407 112.451C171.353 112.783 171.333 113.118 171.346 113.454C171.345 113.489 171.347 113.524 171.352 113.559H192.286L192.014 113.454Z" fill="white"/>
<path d="M214.23 113.454L211.656 112.451H171.407C171.353 112.783 171.333 113.118 171.346 113.454H165.843L165.91 113.559H214.496L214.23 113.454ZM214.23 113.454H165.843L165.91 113.559H214.496L214.23 113.454ZM214.23 113.454H165.843L165.91 113.559H214.496L214.23 113.454ZM214.496 113.559L214.23 113.454H165.843L165.91 113.559H214.496ZM117.418 224.482C115.663 224.48 113.98 223.782 112.738 222.542C111.497 221.302 110.798 219.622 110.795 217.868V89.7071C110.797 87.953 111.495 86.271 112.736 85.0301C113.978 83.7892 115.662 83.0907 117.418 83.0877H127.741V81.9799H117.418C115.368 81.9837 113.402 82.7992 111.953 84.2477C110.504 85.6962 109.688 87.6594 109.686 89.7071V217.868C109.688 219.35 110.116 220.799 110.919 222.045C111.723 223.29 112.868 224.278 114.218 224.892H211.944C211.856 224.759 211.767 224.621 211.678 224.482H117.418ZM279.19 114.866C278.47 114.103 277.601 113.495 276.636 113.08C275.672 112.664 274.632 112.45 273.582 112.451H166.526L160.535 102.935L160.391 102.702L155.31 94.6315L149.618 85.5915C148.921 84.4871 147.955 83.5769 146.811 82.9455C145.666 82.314 144.381 81.9819 143.073 81.9799H117.418C115.368 81.9837 113.402 82.7992 111.953 84.2477C110.504 85.6962 109.688 87.6594 109.686 89.7071V217.868C109.688 219.35 110.116 220.799 110.919 222.045C111.723 223.29 112.868 224.278 114.218 224.892C115.221 225.354 116.313 225.592 117.418 225.59H273.582C274.689 225.592 275.783 225.354 276.788 224.892C278.138 224.278 279.283 223.29 280.087 222.045C280.89 220.799 281.318 219.35 281.32 217.868V120.178C281.322 118.2 280.559 116.297 279.19 114.866ZM280.211 217.868C280.208 219.623 279.508 221.304 278.266 222.544C277.023 223.784 275.339 224.481 273.582 224.482H117.418C115.663 224.48 113.98 223.782 112.738 222.542C111.497 221.302 110.798 219.622 110.795 217.868V89.7071C110.797 87.953 111.495 86.271 112.736 85.0301C113.978 83.7892 115.662 83.0907 117.418 83.0877H143.073C144.194 83.0847 145.298 83.3675 146.279 83.9093C147.261 84.4512 148.087 85.2341 148.681 86.1841L153.995 94.6315L159.076 102.702L160.03 104.22L165.843 113.454L165.91 113.559L273.582 113.559C275.34 113.561 277.025 114.258 278.268 115.499C279.51 116.74 280.209 118.423 280.211 120.178V217.868ZM214.23 113.454H165.843L165.91 113.559H214.496L214.23 113.454ZM214.23 113.454H165.843L165.91 113.559H214.496L214.23 113.454ZM214.23 113.454H165.843L165.91 113.559H214.496L214.23 113.454ZM214.23 113.454L211.656 112.451H166.526L160.535 102.935L160.03 104.22L165.843 113.454L165.91 113.559H214.496L214.23 113.454Z" fill="#3F3D56"/>
<path d="M87.0475 159.403L83.8702 166.036L56.7361 156.955L61.4249 147.165L87.0475 159.403Z" fill="#FFB8B8"/>
<path d="M79.4078 170.484L85.8303 157.075L93.8966 160.928L83.911 181.776L83.2942 181.481C81.3185 180.538 79.7991 178.849 79.0702 176.786C78.3414 174.724 78.4628 172.457 79.4078 170.484Z" fill="#2F2E41"/>
<path d="M93.4437 218.642L86.0846 218.394L85.7745 189.787L94.4017 190.295L93.4437 218.642Z" fill="#FFB8B8"/>
<path d="M80.2153 216.094L95.0917 216.595L94.7901 225.519L71.6607 224.74L71.6838 224.057C71.7577 221.872 72.698 219.805 74.298 218.311C75.898 216.818 78.0265 216.02 80.2153 216.094Z" fill="#2F2E41"/>
<path d="M105.295 98.919C105.295 98.919 82.7716 93.221 72.561 101.618L66.855 118.112L44.0312 150.501L77.0657 170.294L83.0719 155.299L68.6569 148.102L86.0751 133.107L83.0719 212.279L94.4838 214.078C94.4838 214.078 119.71 116.313 105.295 98.919Z" fill="#2F2E41"/>
<path d="M71.1238 104.058L71.3983 103.57C74.2921 98.4328 73.8232 90.0668 72.9204 83.9535C72.1642 78.833 72.1869 69.8093 72.3391 63.1407C72.3767 60.8899 73.1806 58.7189 74.6184 56.9851C76.0563 55.2512 78.0424 54.0579 80.2499 53.6015C87.1018 52.1776 95.5136 51.876 99.918 51.8227C101.115 51.8179 102.266 52.2817 103.124 53.1146C103.982 53.9475 104.479 55.0831 104.508 56.2777C104.642 63.4588 104.601 76.554 102.816 83.5798C100.168 94.0076 104.309 101.094 104.351 101.164L104.601 101.581L71.1238 104.058Z" fill="#22D3EE"/>
<path d="M59.5378 132.816C60.271 132.465 60.9183 131.959 61.4341 131.331C61.9499 130.704 62.3216 129.971 62.5232 129.184C62.7247 128.398 62.7511 127.577 62.6005 126.779C62.4499 125.981 62.1259 125.226 61.6515 124.567L74.3628 69.8293H64.7528L53.5344 123.488C52.4783 124.358 51.7781 125.584 51.5667 126.934C51.3553 128.284 51.6472 129.665 52.3872 130.815C53.1272 131.965 54.2638 132.804 55.5817 133.172C56.8996 133.541 58.3072 133.414 59.5378 132.816Z" fill="#FFB8B8"/>
<path d="M136.828 78.9351L115.615 58.8967L109.882 66.9121L124.215 79.5076L105.418 94.4139C105.282 94.4048 105.147 94.3933 105.008 94.3933C103.852 94.3922 102.719 94.7239 101.746 95.3487C100.773 95.9735 100.001 96.8649 99.5226 97.9164C99.0438 98.9679 98.8785 100.135 99.0464 101.278C99.2144 102.421 99.7085 103.491 100.47 104.361C101.231 105.23 102.227 105.863 103.338 106.182C104.45 106.501 105.63 106.494 106.738 106.161C107.845 105.828 108.834 105.184 109.584 104.305C110.334 103.425 110.815 102.349 110.969 101.204L111.028 101.264L136.828 78.9351Z" fill="#FFB8B8"/>
<path d="M78.9006 54.3052C78.9006 54.3052 65.6538 52.1355 64.4525 62.3319C63.2513 72.5283 62.6506 72.5283 62.6506 72.5283C62.6506 72.5283 72.2606 70.7289 74.6632 73.1281C77.0657 75.5272 78.9006 54.3052 78.9006 54.3052Z" fill="#22D3EE"/>
<path d="M98.6882 52.7353C98.6882 52.7353 109.499 50.9359 114.304 55.7342C119.109 60.5325 121.512 61.7321 121.512 61.7321C121.512 61.7321 110.701 67.73 114.905 73.1281C114.905 73.1281 103.493 67.73 101.691 69.5294C99.8894 71.3287 98.6882 52.7353 98.6882 52.7353Z" fill="#22D3EE"/>
<path d="M89.2057 17.913C85.7954 15.1932 84.8993 9.94407 86.878 6.05942C88.8566 2.17476 93.33 -0.165629 97.6909 0.00915024C102.052 0.18393 106.161 2.6841 108.687 6.23793C112.236 11.2301 112.981 18.1685 117.7 22.0768C121.962 25.6068 128.068 25.5057 133.598 25.2249C135.463 25.1302 137.387 25.0205 139.06 24.1934C140.733 23.3663 142.099 21.6219 141.884 19.7704C143.273 21.9666 142.467 25.0459 140.603 26.8581C138.739 28.6702 136.085 29.4294 133.501 29.7317C128.943 30.2101 124.339 29.4946 120.141 27.6557C115.944 25.8167 112.299 22.9177 109.565 19.2443C107.641 16.5935 106.156 13.5068 103.516 11.566C100.875 9.62527 96.4729 9.49017 94.852 12.336C94.0503 13.7435 94.129 15.509 93.3918 16.9512C92.6546 18.3934 90.2605 19.1711 89.5506 17.7152" fill="#2F2E41"/>
<path d="M88.6844 46.8373C97.8749 46.8373 105.325 39.3973 105.325 30.2196C105.325 21.0419 97.8749 13.6019 88.6844 13.6019C79.4938 13.6019 72.0435 21.0419 72.0435 30.2196C72.0435 39.3973 79.4938 46.8373 88.6844 46.8373Z" fill="#2F2E41"/>
<path d="M88.5839 48.1382C96.1082 48.1382 102.208 42.0471 102.208 34.5333C102.208 27.0195 96.1082 20.9283 88.5839 20.9283C81.0596 20.9283 74.96 27.0195 74.96 34.5333C74.96 42.0471 81.0596 48.1382 88.5839 48.1382Z" fill="#FFB8B8"/>
<path d="M76.1614 24.5413C78.013 24.9457 77.4071 28.0474 78.8702 29.2505C80.1901 30.3358 82.0908 29.2197 83.7519 28.8157C85.8491 28.3056 88.0442 29.0528 89.9804 30.0055C91.9167 30.9582 93.7837 32.1404 95.896 32.5843C98.0082 33.0281 100.512 32.5278 101.697 30.7256C102.829 29.0024 102.412 26.6786 101.526 24.8171C100.425 22.5025 98.6965 20.5422 96.5368 19.1582C94.3771 17.7742 91.8724 17.0218 89.3066 16.9863C86.7407 16.9508 84.2161 17.6336 82.0188 18.9573C79.8216 20.281 78.0394 22.1927 76.8743 24.4759" fill="#2F2E41"/>
<path d="M397.163 225.446C397.163 225.593 397.104 225.733 397 225.837C396.896 225.941 396.755 225.999 396.608 226H0.554697C0.407582 226 0.266492 225.942 0.162467 225.838C0.0584407 225.734 0 225.593 0 225.446C0 225.299 0.0584407 225.158 0.162467 225.054C0.266492 224.95 0.407582 224.892 0.554697 224.892H396.608C396.755 224.893 396.896 224.951 397 225.055C397.104 225.159 397.163 225.299 397.163 225.446Z" fill="#3F3D56"/>
</g>
<defs>
<clipPath id="clip0_209_246">
<rect width="431" height="226" fill="white"/>
</clipPath>
</defs>
</svg>
